<?xml version="1.0" encoding="utf-8"?>
<!-- Generator: Adobe Illustrator 19.2.1, SVG Export Plug-In . SVG Version: 6.00 Build 0)  -->
<svg version="1.1" id="layer" xmlns="http://www.w3.org/2000/svg" xmlns:xlink="http://www.w3.org/1999/xlink" x="0px" y="0px"
	 viewBox="0 0 652 652" style="enable-background:new 0 0 652 652;" xml:space="preserve">
<style type="text/css">
	.st0{fill:#CF0A2C;}
	.st1{fill:#FFFFFF;}
	.st2{fill:#101E8E;}
	.st3{fill:#FFFFFE;}
	.st4{fill:none;stroke:#1C3E94;stroke-width:0;stroke-linecap:round;stroke-linejoin:round;}
</style>
<g>
	<path class="st0" d="M563.9,321.2c0.3,135.2-109,245-244.2,245.4c-135.2,0.3-245-109-245.4-244.1C74,187.2,183.3,77.3,318.5,77
		C453.6,76.6,563.5,186,563.9,321.2"/>
	<path class="st1" d="M317.1,454H283l0.9-18.5h-12.4L264,454h-34.9l50.2-103.8h37.2L317.1,454z M291.8,445.5h16.7l-0.5-86.8h-23.4
		l-42,86.8h15.7l7.4-18.5h27L291.8,445.5z M293.7,418.7h-24.8l21-51.2h7.7L293.7,418.7z M281.6,410.2h4.3l1-12.9L281.6,410.2z"/>
	<path class="st2" d="M319,571.8c-66.7,0-129.3-25.9-176.5-73c-47.2-47.1-73.3-109.7-73.5-176.4c-0.2-66.8,25.7-129.6,72.8-177
		C188.9,98.1,251.6,72,318.4,71.8h0.6c66.7,0,129.4,25.9,176.5,73c47.2,47.1,73.3,109.7,73.5,176.4c0.2,66.8-25.7,129.6-72.8,177
		c-47.1,47.3-109.8,73.5-176.6,73.7H319z M319.1,82.2h-0.6c-64,0.2-124.1,25.2-169.2,70.6c-45.2,45.4-69.9,105.6-69.8,169.6
		c0.1,25.4,4.1,50.2,11.7,73.7c0.7,2.3-4.2,1.5-1.5,6.1c1.1,1.9,5.2,4.8,6.1,6.8c11.9,30.6,30.2,58.6,54.1,82.4
		c45.2,45.1,105.3,70,169.1,70h0.6c64-0.2,124.1-25.2,169.2-70.6c45.2-45.3,69.9-105.6,69.8-169.6c-0.2-63.9-25.2-123.9-70.4-169
		C443,107.1,382.9,82.2,319.1,82.2"/>
	<path class="st3" d="M486.8,319.7c0,91.5-74.1,165.6-165.6,165.6c-91.5,0-165.6-74.1-165.6-165.6c0-91.5,74.1-165.6,165.6-165.6
		C412.7,154.1,486.8,228.2,486.8,319.7"/>
	<path class="st2" d="M321.2,148.9c-94.2,0-170.9,76.6-170.9,170.9c0,19.4,3.3,38.1,9.3,55.5c3.7-1.2,7.5-2.5,11.1-3.7l-2.5-3.7
		c-4.8-15.2-7.4-31.4-7.4-48.2c0-88.5,71.9-160.4,160.4-160.4c88.4,0,160.4,71.9,160.4,160.4c0,88.4-71.9,160.4-160.4,160.4
		c-38.5,0-73.9-13.6-101.6-36.3l-0.2-0.3l-7.6,7.4c29.6,24.7,67.8,39.6,109.4,39.6c94.2,0,170.9-76.6,170.9-170.8
		C492,225.5,415.4,148.9,321.2,148.9"/>
	<path class="st1" d="M205.9,479.7c2-3.2,1-5.7-1-7.3c-4.3-3.4-9.2,0.2-13.3,5.5c-1.4,1.8-7.1,9.3-1.5,13.5c3.8,2.9,6.6,0.1,7.6-0.9
		l7.4,5.7c-7.1,9.2-16,3.7-19.3,1.1c-2.5-1.9-6.6-5.8-6.8-11.5c-0.2-5.6,2.9-10.7,5.3-13.8c3.1-4,7.1-7.4,11.9-8.7
		c5.3-1.4,9.4,0.3,13.2,3.2c4.2,3.2,6.5,6.8,6.6,10.8c0.1,4.1-1.9,6.8-2.7,8L205.9,479.7z"/>
	<polygon class="st1" points="233.2,483.5 241.5,487.2 235.7,500.5 245.7,504.9 251.5,491.6 259.9,495.3 244.9,529.3 236.5,525.7 
		242.6,511.9 232.6,507.5 226.5,521.3 218.2,517.6 	"/>
	<polygon class="st1" points="273.6,499 282.7,501.1 274.1,537.3 265.1,535.2 	"/>
	<path class="st1" d="M316.9,516.8c-0.2-3.8-2.5-5.3-5-5.4c-5.5-0.3-7.4,5.3-7.8,12.1c-0.1,2.3-0.6,11.7,6.4,12
		c4.8,0.3,5.5-3.7,5.8-5.1l9.4,0.5c-0.6,11.7-11.1,12.1-15.3,11.9c-3.2-0.2-8.7-1.1-12.1-5.6c-3.3-4.5-3.7-10.5-3.4-14.3
		c0.3-5.1,1.5-10.1,4.8-13.9c3.6-4.2,7.9-5.1,12.6-4.8c5.3,0.3,9.2,1.9,11.7,5.2c2.5,3.3,2.3,6.7,2.3,8L316.9,516.8z"/>
	<polygon class="st1" points="342,504.4 351,502.7 354.1,518.8 361.3,500.8 371.8,498.8 363.8,517 379.6,535.2 368.6,537.3 
		354.3,519.8 358,539.3 349,541 	"/>
	<polygon class="st1" points="385.1,494.3 407.5,484.4 410.4,490.9 396.2,497.1 399.3,504.2 412.7,498.3 415.6,504.8 402.2,510.7 
		405.4,518 420,511.5 422.8,518.2 400.1,528.2 	"/>
	<polygon class="st1" points="420.7,476.9 430.7,469.3 456.2,484.8 439.4,462.7 445.6,457.9 468.2,487.5 458.5,494.9 432,478.7 
		449.6,501.7 443.3,506.5 	"/>
	<path class="st1" d="M175.5,168.5c-2.9-2.1-5.5-0.8-7.4,1.1c-4.5,4.6-2.1,10.2,2,14.2c5.7,5.5,11.1,4.7,15.1,0.6
		c1.2-1.2,2.3-2.7,3.3-4.1l-4.7-4.6l-5,5.2l-4.6-4.5l11.2-11.5l13,12.6c-2.6,4.4-5.6,8.5-9.1,12.1c-2.6,2.6-6.5,5.9-11.4,6.7
		c-5.4,0.8-10.6-1.5-14.4-5.3c-3-2.8-6.2-7.7-6.1-13c0.1-5.6,3.7-10.3,6.6-13.2c3.7-3.8,7.6-6.2,11.5-6.1c3.6,0,5.6,2,6.8,3.1
		L175.5,168.5z"/>
	<polygon class="st1" points="200.5,135.4 222.6,122.6 225.9,128.3 211.8,136.3 215.4,142.5 228.6,134.8 231.8,140.5 218.6,148.1 
		222.2,154.4 236.6,146.1 239.9,151.8 217.5,164.8 	"/>
	<polygon class="st1" points="251.5,110.3 264.1,107.1 281.4,128.9 275.2,104.4 283.2,102.4 291.4,135.3 279.1,138.4 261.3,115.7 
		267.8,141.3 259.8,143.3 	"/>
	<path class="st1" d="M325.4,99.6l-1,20.2c-0.1,1.8,0,3.7,0.8,5.2c1.2,1.9,3.4,2.9,5.7,3.1c5.9,0.3,7-4.5,7.2-7.9l0.9-19.8l9.2,0.4
		l-0.9,19.7c-0.2,3.8-0.9,7.8-3.1,10.2c-3.5,3.9-9.6,4.4-13.9,4.2c-16-0.8-15.6-10.8-15.3-16.3l1-19.4L325.4,99.6z"/>
	<polygon class="st1" points="378.4,107.1 387.7,109.8 378.1,142.5 368.8,139.8 	"/>
	<polygon class="st1" points="416.6,120.7 427.8,127.2 425.1,154.9 437.7,132.9 444.9,137 427.9,166.5 416.9,160.1 419.9,131.4 
		406.8,154.3 399.6,150.2 	"/>
	<polygon class="st1" points="469.9,157.2 487.7,175.5 483.1,180 471.8,168.5 466.7,173.4 477.4,184.3 472.7,188.8 462.1,177.9 
		456.9,183 468.5,194.9 463.7,199.5 445.6,180.9 	"/>
	<path class="st1" d="M232.6,450.7c-4.9-2.5-12.5-11.1-13.8-16.3c-0.7-2.5-1.3-4.8-1.9-6.9c-4.4-3.5-6.8-7.8-9.2-12.3
		c0,0-0.8-1.5-0.9-1.6c-4.7-8.4-7.7-15.8-9.3-23c-1,0.6-2.3,1.1-3.8,1.1c-0.9,0-1.8-0.2-2.8-0.5c-6.5-2.4-4.8-12.6-3.1-22.5
		c0.4-2.1,0.7-4.2,0.9-5.9c-2.1-1.5-3.1-3.6-3.7-5.4c-4-11.4-0.9-26.3,2.3-38c0.5-1.6,1-3.2,1.6-4.7c0.8-2.1,1.5-4.1,1.6-5.7
		c0.1-1.6,0-3.3-0.2-4.9c-0.2-1.9-0.3-3.9-0.1-6.1c1-9.2,4-16.1,6.5-21c0.9-1.9,2.1-3.4,3.3-4.9c0.8-1,1.5-1.9,2.1-2.9
		c3.5-5.6,6.5-12.2,9.9-21.2c1.6-4.4,2.7-8.4,3.3-12c0.3-1.8,0.6-3.5,0.9-5.2c0.9-5.6,1.7-10.1,1-14.6c-3-2.2-6.1-4.2-9-6.1
		c-0.3-0.2-0.7-0.4-1.1-0.5c-1.1-0.5-2.3-1-3.2-2.2c-2.4-3.5-1.8-9.3-1.2-14.4c1.4-10.1,6.9-19.7,16.9-29.6
		c6.5-6.4,11.9-10.7,16.6-13.1c6.9-3.5,13.6-6.8,20-8.4c2.8-0.7,8-2.1,12.5-2.2c2.6,0,4.7,0.3,6.5,1.2c3.7,1.8,5.3,6.3,6.8,10.2
		c0.4,1.2,0.9,2.4,1.3,3.3c1.4,2.9,4.5,9,6.4,12.7c0.3-0.1,0.6-0.3,1.1-0.4c3.2-1.1,9.7-2.9,16.6-3c5.9,0,10.7,1.2,14.2,3.7
		c5.1,3.6,8.2,10.5,7.8,17.3c-0.8,11.1-5.4,20.9-9.2,27.3c-4.6,7.6-9.4,13.7-15.3,19.2c-1,0.9-4.5,4.2-5.2,4.9
		c4.8-1.7,9.2-2.3,12.9-2.4h0.9c0.1-0.1,0.2-0.3,0.3-0.4c2.2-4.3,5.3-9.9,8-12.9c3.3-3.6,7.1-6.3,10.5-8.6c1.5-1.1,4-2.1,6.2-2.8
		c-1.5-20.6,12.6-46.5,29.3-53.1c2.9-1.2,6.1-1.8,9.1-1.8c5.4-0.1,9.7,1.8,12.5,5.4c3,3.8,4,9.4,3.1,16.6c0.7-0.1,1.5-0.2,2.2-0.2
		c5.5-0.1,10.5,2.5,13.2,6.8c4.3,7.3,4,17-0.5,24c1.5,1.8,2.5,3.8,2.8,6.1c1.1,6.8-3.1,13.8-6,18c2,2.4,3,5.6,2.7,9.4
		c-0.5,7.9-6.6,18.2-16.2,23.1c0,0.6,0.1,1.2,0.2,1.7c0,0.7,0.1,1.3,0.1,1.8v0.2c0,2.1,0,2.7-0.1,3.7l-0.1,0.7c0,0-0.1,1.5-0.2,2.2
		c-0.3,2.4-1,4.8-1.4,6.4c-1.3,4.7-3.8,8.7-6.3,12.3c-0.5,0.7-1.4,2-2.2,2.8l0,0.1c0,0-0.1,4.3-0.1,5.8c0,1.1,0.7,15.2,2.8,23.9
		c0.8,3.4,2,6.1,2,6.1l0,0.1c1.2,3,15.4,10.7,36.9,18.3c27.2,9.6,49.1,13.3,49.4,13.3c0,0-21.2,51.3-42.7,67
		c-12.8,9.4-31.6,26.1-53.8,36c-1.6,0.7-46.8,9.2-51.7,9.3C323.5,474.8,281.7,474.9,232.6,450.7 M268.5,257.3
		c-8,17.1-14.5,44.7-8.6,59c5.2-4.7,8.6-7.9,19.4-13.4c6.2-3.2,13.4-5.4,16.5-6.4c0.3-0.1,0.6-0.2,0.8-0.2c0.1-0.2,0.2-0.3,0.3-0.7
		c0,0,0,0,0,0c-2.7-0.8-6.3-1.9-8.7-3.2c-1.4-0.7-5-2.7-5.5-6.3c-0.3-2.5,1.4-3.8,5.3-7.1c3.4-2.8,8-6.5,10.8-10.5
		c0.3-0.3,0.8-1.2,1.5-2.2c-0.3-0.1-0.5-0.2-0.7-0.3c-3-1.5-6.3-3.1-11.1-3.1c-0.3,0-1.2,0.1-1.9,0.2c-1.4,0.2-3.2,0.3-4.8,0.4
		c-1.4,0-2.5-0.1-3.3-0.4c-1.3-0.4-2.4-1.5-2.8-2.9c-0.6-2.1,0.7-4.8,2.1-6.9C274.9,254.7,271.8,256.1,268.5,257.3"/>
	<path class="st1" d="M323.4,475.3c-1.7,0-42.7-0.3-91-24.1c-5.2-2.6-12.8-11.4-14.1-16.6c-0.6-2.5-1.2-4.7-1.8-6.8
		c-4.4-3.6-6.8-7.9-9.2-12.4c0,0-0.8-1.5-0.9-1.6c-4.6-8.1-7.6-15.5-9.2-22.5c-1.1,0.6-2.2,0.8-3.4,0.8c-1.1,0-2-0.2-3-0.5
		c-6.9-2.6-5.1-13-3.4-23.1c0.3-1.9,0.7-4,0.9-5.5c-2.1-1.7-3-3.8-3.6-5.5c-4.1-11.5-0.9-26.5,2.3-38.3c0.4-1.6,1-3.2,1.5-4.7
		c0.8-2.2,1.5-4.1,1.6-5.6c0.1-1.6,0-3.2-0.2-4.9c-0.2-2-0.3-4-0.1-6.1c1-9.3,4-16.3,6.5-21.2c1-2,2.2-3.5,3.3-5
		c0.8-1,1.5-1.9,2.1-2.9c3.4-5.6,6.5-12.1,9.8-21.1c1.7-4.4,2.7-8.3,3.3-11.9c0.3-1.8,0.6-3.5,0.9-5.2c0.9-5.5,1.7-9.9,1.1-14.2
		c-2.9-2.2-6-4.1-8.8-5.9c-0.3-0.1-0.7-0.3-1-0.5c-1.1-0.5-2.5-1-3.4-2.4c-2.5-3.6-2-9.5-1.2-14.8c1.4-10.2,7-20,17-29.9
		c6.5-6.4,12-10.8,16.8-13.2c6.9-3.5,13.7-6.8,20.1-8.5c2.8-0.7,8.1-2.1,12.6-2.1h0.3c2.6,0,4.6,0.4,6.4,1.2c3.9,2,5.5,6.5,7,10.5
		c0.4,1.2,0.9,2.4,1.3,3.3c1.3,2.7,4,8.1,6.2,12.3c0.2-0.1,0.4-0.1,0.6-0.2c3.3-1.1,9.8-2.9,16.8-3.1h0.5c5.8,0,10.5,1.3,14,3.8
		c5.2,3.7,8.5,10.8,8,17.8c-0.8,11.2-5.4,21.2-9.2,27.5c-4.6,7.7-9.4,13.8-15.4,19.3c-0.6,0.5-1.9,1.8-3.1,2.9l-0.4,0.3
		c3.5-1,7.1-1.6,10.8-1.6h0.6l0.1-0.2c2.1-4.2,5.3-9.9,8.1-13c3.4-3.7,7.2-6.4,10.6-8.6c1.3-0.9,3.3-1.8,5.9-2.8
		c-1.3-20.9,13-46.7,29.7-53.2c3-1.2,6.3-1.8,9.2-1.9h0.3c5.4,0,9.8,1.9,12.6,5.6c3,3.8,4.1,9.3,3.3,16.3c0.5,0,1.1-0.1,1.6-0.1h0.3
		c5.6,0,10.8,2.7,13.5,7.1c4.3,7.2,4.2,16.9-0.3,24.3c1.4,1.8,2.3,3.8,2.7,6.1c0.8,5.2-1.2,11.2-5.8,18c1.9,2.5,2.8,5.8,2.6,9.4
		c-0.5,7.7-6.2,18.1-16.2,23.3c0,0.5,0.1,0.9,0.1,1.3c0.1,0.7,0.1,1.4,0.2,1.9v0.2c0,2.2,0,2.7-0.1,3.7l-0.1,0.7
		c0,0-0.1,1.5-0.2,2.2c-0.3,2.4-1,4.8-1.4,6.4c-1.3,4.8-3.9,8.8-6.4,12.4c-0.4,0.6-1.3,1.8-2.1,2.8c0,0.6-0.1,4.3-0.1,5.7
		c0,1.1,0.7,15.1,2.8,23.7c0.8,3.3,1.9,6,2,6l0,0.1c1.2,2.8,15.5,10.5,36.6,18c26.5,9.4,48.3,13.2,49.2,13.3l0.6,0.1l-0.3,0.6
		c0,0.1-5.4,13-13.3,27.7c-7.3,13.5-18.4,31.4-29.6,39.6c-2.8,2.1-5.9,4.5-9.3,7.1c-12.1,9.4-27.2,21.2-44.6,28.9
		C373.9,466.6,328.5,475.2,323.4,475.3L323.4,475.3z M197.8,389.8l0.2,0.7c1.5,7.1,4.6,14.6,9.2,22.9c0,0.1,0.9,1.6,0.9,1.6
		c2.5,4.4,4.8,8.6,9.1,12.1l0.1,0.1l0,0.2c0.6,2.1,1.2,4.5,1.9,6.9c1.3,4.9,8.6,13.5,13.6,15.9c48,23.7,88.8,24,90.5,24v0.5l0-0.5
		c4.9-0.1,49.9-8.6,51.5-9.2c17.2-7.7,32.3-19.4,44.3-28.8c3.4-2.6,6.5-5,9.3-7.1c19.9-14.6,39.8-60.5,42.3-66.2
		c-4.3-0.8-24.3-4.6-48.8-13.3c-19.7-7-35.7-15-37.2-18.5l-0.1-0.1c0,0-1.2-2.8-2-6.2c-2.1-8.7-2.8-22.9-2.8-24
		c0-1.5,0.1-5.8,0.1-5.8l0.1-0.3l0.1-0.1c0.8-0.9,1.8-2.2,2.1-2.8c2.5-3.5,4.9-7.4,6.2-12.1c0.5-1.6,1.1-4,1.4-6.3
		c0.1-0.7,0.2-2.1,0.2-2.1l0.1-0.7c0.1-1,0.1-1.5,0.1-3.6v-0.2c0-0.5-0.1-1.1-0.1-1.8c0-0.5-0.1-1.1-0.2-1.7l0-0.3l0.3-0.2
		c9.7-4.9,15.4-15.3,15.9-22.6c0.2-3.6-0.7-6.7-2.6-9l-0.3-0.3l0.3-0.3c4.6-6.6,6.7-12.7,5.9-17.5c-0.3-2.2-1.2-4.2-2.7-5.9
		l-0.3-0.3l0.2-0.3c4.4-7.1,4.6-16.5,0.5-23.5c-2.5-4-7.4-6.6-12.6-6.6h-0.2c-0.7,0-1.5,0.1-2.2,0.2l-0.7,0.1l0.1-0.7
		c0.9-7-0.1-12.4-3-16.1c-2.7-3.4-6.8-5.2-11.8-5.2h-0.3c-2.9,0-6.1,0.7-8.9,1.8c-16.4,6.5-30.4,32-29,52.5l0,0.4l-0.4,0.1
		c-2.8,1-4.8,1.9-6.1,2.8c-3.3,2.2-7.1,4.9-10.4,8.5c-2.8,3-5.8,8.6-8,12.8l-0.4,0.7h-1.2c-4.3,0-8.6,0.8-12.7,2.3l-2.4,0.9l4-3.7
		c1.2-1.2,2.6-2.4,3.1-2.9c5.8-5.5,10.7-11.5,15.2-19.1c3.7-6.3,8.3-16.1,9.1-27.1c0.4-6.6-2.6-13.4-7.6-16.8
		c-3.4-2.4-7.9-3.6-13.4-3.6h-0.5c-6.8,0.1-13.2,1.9-16.5,3c-0.4,0.1-0.8,0.3-1.1,0.3l-0.4,0.2l-0.2-0.4c-2.2-4.3-5.1-9.9-6.4-12.7
		c-0.4-0.9-0.9-2.1-1.3-3.3c-1.4-3.8-3-8.2-6.5-9.9c-1.5-0.8-3.5-1.2-5.9-1.2h-0.3c-4.4,0-9.5,1.4-12.3,2.1
		c-6.3,1.6-13,4.9-19.9,8.4c-4.7,2.4-10.1,6.7-16.5,13c-9.8,9.8-15.3,19.4-16.7,29.3c-0.7,5.1-1.2,10.8,1.1,14.1
		c0.8,1.1,1.9,1.5,2.9,2c0.5,0.2,0.9,0.4,1.2,0.6c2.9,1.8,6,3.8,9.1,6.1l0.2,0.1v0.2c0.7,4.5,0,9-1,14.8c-0.3,1.6-0.6,3.4-0.9,5.1
		c-0.6,3.7-1.6,7.7-3.3,12.1c-3.4,9.1-6.5,15.7-9.9,21.3c-0.6,1-1.3,1.9-2.1,2.9c-1.1,1.5-2.3,3-3.2,4.9c-2.5,4.9-5.4,11.7-6.5,20.9
		c-0.2,2.1,0,4,0.1,5.9c0.2,1.8,0.3,3.4,0.2,5.1c-0.1,1.6-0.9,3.7-1.7,5.8c-0.6,1.5-1.1,3.1-1.5,4.7c-3.1,11.7-6.3,26.4-2.3,37.7
		c0.6,1.6,1.5,3.7,3.5,5.2l0.3,0.2l0,0.3c-0.2,1.7-0.6,3.8-0.9,5.9c-1.7,9.7-3.4,19.7,2.7,21.9c0.8,0.3,1.6,0.5,2.5,0.5
		c1.2,0,2.4-0.3,3.6-1L197.8,389.8z M259.8,317.1l-0.3-0.7c-5.8-14.1,0.1-41.2,8.6-59.4l0.1-0.2l0.2,0c3.1-1.1,6.1-2.5,9.1-4.2
		l1.8-1l-1.1,1.8c-1.7,2.7-2.4,4.9-2,6.5c0.3,1.2,1.2,2.1,2.4,2.5c0.7,0.3,1.7,0.4,2.9,0.4h0.3c1.6,0,3.4-0.2,4.8-0.4
		c0.8-0.1,1.6-0.2,1.9-0.2c4.9,0,8.3,1.7,11.3,3.2l1.3,0.6l-0.3,0.5c-0.7,1.2-1.2,1.9-1.5,2.2c-2.9,4-7.5,7.8-10.9,10.5
		c-3.9,3.2-5.3,4.4-5.1,6.6c0.3,3.4,3.8,5.2,5.2,5.9c2.4,1.3,6,2.5,8.6,3.2l0.5,0.2l-0.2,0.5c-0.2,0.4-0.3,0.6-0.3,0.7l-0.1,0.2
		l-1,0.3c-3.1,1-10.2,3.2-16.4,6.4c-10.8,5.5-14.1,8.6-19.2,13.3L259.8,317.1z M268.9,257.7c-10.6,22.7-12.7,46.8-8.8,57.7
		c4.9-4.5,8.4-7.6,18.9-13c6.3-3.2,13.5-5.5,16.6-6.5l0.5-0.1c-2.6-0.8-5.9-1.9-8.2-3.1c-1.5-0.8-5.3-2.8-5.8-6.7
		c-0.3-2.8,1.5-4.3,5.5-7.5c3.4-2.8,8-6.5,10.8-10.4c0.2-0.3,0.6-0.9,1.1-1.7l-0.2-0.1c-2.9-1.4-6.2-3.1-10.9-3.1
		c-0.3,0-1.1,0.1-1.8,0.2c-1.5,0.2-3.3,0.4-4.9,0.4h-0.3c-1.3,0-2.3-0.1-3.2-0.4c-1.5-0.5-2.7-1.7-3.1-3.3c-0.4-1.5,0-3.4,1.2-5.7
		C273.9,255.7,271.5,256.7,268.9,257.7"/>
	<path class="st1" d="M421,352.6c-8.1-2.8-36.3-13.5-39.1-20.4c0,0-1.4-3-2.2-6.8c-2.1-8.9-2.8-23.2-2.9-24.7c0-1.6,0.1-5.9,0.1-5.9
		s0-1.5,0.9-2.4c0.6-0.6,1.5-1.9,2-2.6c2.5-3.5,4.6-7,5.8-11.1c0.5-1.8,1-4,1.3-5.8c0.1-0.6,0.2-2,0.2-2c0.1-1.5,0.2-1.5,0.2-4
		c-0.1-1.3-0.3-3.3-0.5-6.1c13.7-5.2,21.8-24.4,12.3-29.5c2.1-2.8,13.6-17.1,3.2-24.2c5.4-5.8,6.4-15.7,2.3-22.5
		c-3.5-5.6-12.3-6.8-17.3-2.5c7-26.1-9.4-26.3-18.2-22.8c-15.3,6-29.7,32.5-26.7,52.2c-0.2,0.1-5.8,1.8-8.2,3.4
		c-3.5,2.3-6.9,4.8-9.8,8c-2.6,2.9-5.8,8.9-7.5,12.2c-0.5,0.9-0.9,1.7-1.1,2.3c-1,0.1-1.9,0.1-2.8,0.1c-17.1,0-27.6,12.1-29.8,14.5
		c-1.5,1.7-5.2,7.1-3.7,7.5c1.9,0.6,7.4-0.3,8.9-0.3c6.8,0,11.2,2.9,14.5,4.4c0.8,0.3,2.7,1.2,2.7,1.2s-3.1,5-3.9,6.1
		c-5.3,7.2-15.6,13.7-15.4,14.9c0.2,1.5,2.3,2.8,3.5,3.4c4,2.1,11.8,4,11.8,4s-0.5,1.9-1.4,4c-0.3,0.9-0.9,2.1-1.8,2.5
		c-1,0.4-10,2.8-17.5,6.7c-12.5,6.5-14.6,9.5-22,16c-11.2-15.4-1.2-51.3,6.9-67.9c14.7-4.9,24.5-14.7,36.5-25.9
		c5.6-5.2,10.3-11.1,14.6-18.4c4.2-7.1,8-16.3,8.6-25.7c0.4-5.8-2.4-11.3-6.2-14c-7.3-5.1-20.1-2.7-27.6-0.2c-1.6,0.6-2.5,0.8-4,1.5
		c0,0-5.8-11.4-8-15.8c-1.8-3.7-3.1-10.1-6.4-11.8c-3.9-1.9-11.7,0-16.3,1.2c-6.2,1.6-13,5-19.2,8.2c-5.4,2.8-11.2,8-15.7,12.4
		c-6.2,6.1-14.1,15.5-15.8,27.5c-0.6,4.2-1.1,9.4,0.6,11.7c0.4,0.6,2,1,3.2,1.7c3.6,2.3,7.1,4.5,10.5,7.1c1.5,7-0.3,13.8-1.6,22.4
		c-0.7,4.6-2.1,9-3.5,12.8c-3,7.9-6.1,15.3-10.2,21.8c-1.7,2.8-3.8,4.8-5.2,7.6c-2.8,5.4-5.2,11.7-6.1,19.7
		c-0.4,3.5,0.6,6.9,0.3,10.9c-0.3,3.4-2.2,7.2-3.3,11.1c-2.9,10.8-6.1,25.3-2.3,35.8c0.6,1.9,1.6,3.7,4,4.6c0.1,6.1-5.7,25-0.4,27
		c3.6,1.4,5.2-3.2,8-2.5c1.2,9.8,5.2,18.7,9.7,26.6c0.1,0.2,0.2,0.3,0.3,0.5c2.8,5,5.1,9.6,9.8,13.1c2.2,6.8,4,16.3,7.2,23.8
		c0.7,1.8,16.3,9.2,16,5.9c-0.2-0.5-1.8,1.5-2,1c0,0,104.3,1.7,117.2,0.6c12.9-1.1,59.9-19.6,72.5-28.6
		c12.6-8.9,36.7-58.5,36.7-58.5S448.8,362.4,421,352.6"/>
	<path class="st1" d="M335.2,457.6L335.2,457.6c-33,0-89-0.9-93.7-1v0h-0.3c-0.3,0-0.9-0.3-4.8-2.6c-1.2-0.7-2.7-1.5-2.9-1.7
		c5.2,1.3-32.3-49.2-15.3-8.3c-1.8-4.2-0.6-7.4,0.6-10.5c0.9-2.6,1.8-5,0.9-8c-4.4-3.3-6.8-7.5-9.2-11.9l-0.6-1.2
		c-0.1-0.2-0.2-0.3-0.3-0.5c-5.5-9.8-8.6-18.1-9.7-26.4c-0.9,0-1.7,0.6-2.6,1.2c-1,0.8-2.1,1.6-3.7,1.6c-0.5,0-1-0.1-1.5-0.3
		c-4-1.5-2.4-10.8-1-19c0.6-3.2,1.1-6.3,1.1-8.2c-2.5-1.1-3.4-3-4-4.8c-3.8-10.6-0.5-25.7,2.4-36c0.4-1.5,0.9-3,1.5-4.5
		c0.9-2.3,1.6-4.5,1.8-6.5c0.2-1.9,0-3.8-0.2-5.5c-0.2-1.8-0.3-3.6-0.2-5.4c1-8.8,3.8-15.3,6.2-20c0.8-1.6,1.9-3.1,2.9-4.4
		c0.8-1,1.6-2.1,2.3-3.2c3.6-5.8,6.7-12.6,10.2-21.8c1.7-4.6,2.8-8.8,3.4-12.6c0.3-1.8,0.6-3.5,0.8-5.1c1.1-6.2,2-11.5,0.9-16.9
		c-3.4-2.7-6.9-4.9-10.3-7c-0.5-0.3-1-0.5-1.5-0.8c-0.8-0.3-1.5-0.6-1.8-1.1c-1.7-2.4-1.3-7.2-0.6-12.1c1.3-9.3,6.5-18.4,16-27.8
		c6.2-6.1,11.4-10.2,15.8-12.5c6.7-3.4,13.2-6.6,19.3-8.2c2.8-0.7,7.9-2,12-2c2,0,3.5,0.3,4.7,0.9c2.6,1.3,4,5.1,5.2,8.4
		c0.5,1.3,0.9,2.6,1.4,3.6c1.8,3.8,6.7,13.2,7.7,15.3c1.3-0.6,2.1-0.8,3.6-1.3c2.6-0.9,9.3-2.8,16.2-2.8c5,0,9,1,11.9,3.1
		c4.2,2.9,6.8,8.7,6.4,14.4c-0.6,8.2-3.7,17.4-8.7,25.9c-4.4,7.4-9,13.2-14.7,18.5c-1,0.9-2,1.8-2.9,2.7
		c-10.7,10.1-20,18.7-33.5,23.2c-3.7,7.6-8.3,20.4-10.5,34.1c-1.6,10.2-2.4,24.1,3.4,32.6c1.1-0.9,2.1-1.8,3-2.7
		c5-4.6,8.3-7.6,18.7-13c6-3.1,12.7-5.2,16-6.2c0.8-0.2,1.4-0.4,1.5-0.5c0.7-0.3,1.3-1.6,1.5-2.2c0.6-1.4,1-2.8,1.2-3.4
		c-1.8-0.5-8-2.1-11.4-3.9c-1.5-0.8-3.6-2.1-3.7-3.8c-0.1-0.7,0.9-1.6,4.1-4.2c3.5-2.9,8.3-6.8,11.4-11.1c0.6-0.9,2.8-4.2,3.6-5.5
		c-0.6-0.3-1.6-0.7-2.1-0.9c-0.6-0.3-1.2-0.6-1.8-0.9c-3.1-1.5-7-3.4-12.5-3.4c-0.4,0-1.3,0.1-2.2,0.2c-1.5,0.2-3.3,0.4-4.8,0.4
		c-0.9,0-1.6-0.1-2.1-0.3c-0.3-0.1-0.6-0.3-0.6-0.6c-0.5-1.8,3.3-6.8,4.2-7.7l0.2-0.2c10.8-12,22.2-14.4,29.9-14.4h0.9
		c0.5,0,1,0,1.5,0c0.2-0.6,0.6-1.2,1-2.1c1.7-3.3,4.9-9.4,7.6-12.3c3.1-3.4,6.7-5.9,9.9-8c2.1-1.4,6.5-2.8,7.9-3.4
		c-2.8-19.3,11-46,27-52.2c2.7-1.1,5.5-1.6,8.2-1.6c4.3,0,7.7,1.5,9.8,4.2c3.1,4,3.5,10.5,1.4,19.4c1.9-1.2,4.2-1.8,6.6-1.8
		c4.3,0,8.3,2,10.3,5.3c4.1,6.8,3.2,16.7-2,22.7c2.1,1.6,3.5,3.7,3.9,6.2c0.8,4.7-1.6,10.7-7.1,17.9c2.7,1.7,4.1,4.8,3.8,8.7
		c-0.5,7.3-6.8,17.4-16.4,21.2c0.1,1.5,0.2,2.9,0.3,4c0,0.7,0.1,1.3,0.1,1.8c0,2.1,0,2.5-0.1,3.3l-0.1,0.8c0,0-0.1,1.3-0.2,2
		c-0.3,2.1-0.9,4.4-1.3,5.9c-1.2,4.3-3.5,8-5.8,11.3c-0.5,0.6-1.4,1.9-2.1,2.7c-0.7,0.8-0.7,2-0.7,2c0,0-0.1,4.4-0.1,5.9
		c0,1.9,0.9,16,2.8,24.6c0.9,3.7,2.2,6.7,2.2,6.7c2.4,5.9,25.5,15.4,38.8,20.1c27.5,9.7,46.4,17,46.6,17.1l0.5,0.2l-0.3,0.5
		c-0.9,2-24.3,49.8-36.8,58.7c-12.7,9-59.6,27.5-72.8,28.6C355.6,457.5,347.8,457.6,335.2,457.6 M241.2,455.6L241.2,455.6
		c0.6,0,59.7,1,94,1c12.5,0,20.3-0.1,23.2-0.4c13.1-1.1,59.6-19.5,72.2-28.5c11.7-8.3,33.6-52.5,36.3-57.8
		c-3.3-1.2-21.2-8-46.1-16.8c-6.1-2.1-36.4-13.2-39.4-20.7c-0.1-0.1-1.4-3.1-2.3-6.8c-2-8.6-2.9-22.9-2.9-24.8c0-1.5,0.1-5.8,0.1-6
		c0,0,0-1.6,1-2.7c0.6-0.6,1.5-1.8,2-2.5c2.6-3.8,4.6-7.1,5.7-11c0.4-1.5,1-3.7,1.3-5.8c0.1-0.6,0.2-2,0.2-2l0.1-0.7
		c0.1-0.9,0.1-1.2,0.1-3.2c0-0.4-0.1-1-0.2-1.7c-0.1-1.2-0.2-2.6-0.3-4.4l0-0.4l0.4-0.1c9.3-3.5,15.6-13.4,16-20.5
		c0.2-2.6-0.4-6.2-3.8-8l-0.6-0.3l0.6-0.7c5.4-7.1,7.8-12.9,7.1-17.3c-0.4-2.4-1.7-4.4-3.9-5.9l-0.5-0.3l0.4-0.5
		c5.2-5.6,6.2-15.3,2.3-21.9c-1.8-3-5.5-4.8-9.4-4.8c-2.8,0-5.3,0.9-7.2,2.5l-1.2,1.1l0.4-1.6c2.5-9.3,2.2-16-0.8-20
		c-2.5-3.1-6.2-3.8-8.9-3.8c-2.5,0-5.2,0.6-7.8,1.5c-15.7,6.2-29.2,32.7-26.3,51.6l0.1,0.4l-0.4,0.2c0,0-0.2,0-0.4,0.2
		c-3.8,1.2-6.4,2.3-7.7,3.2c-3.1,2.1-6.8,4.6-9.7,7.9c-2.6,2.8-5.8,8.8-7.4,12c-0.6,0.9-0.9,1.7-1.1,2.2l-0.1,0.3l-0.3,0
		c-0.7,0.1-1.4,0.1-2,0.1l-0.8,0c-7.6,0-18.7,2.5-29.2,14.1l-0.2,0.2c-1.8,1.9-4.2,6-4,6.7c0.3,0.1,0.9,0.1,1.7,0.1
		c1.4,0,3.2-0.2,4.6-0.3c1-0.1,1.8-0.2,2.4-0.2c5.7,0,9.7,2,12.9,3.6c0.6,0.3,1.2,0.6,1.8,0.9c0.8,0.3,2.7,1.1,2.7,1.1l0.6,0.3
		l-0.3,0.5c-0.1,0.2-3.1,5-4,6.1c-3.2,4.4-8,8.3-11.6,11.3c-1.8,1.4-3.6,2.9-3.7,3.4c0.1,0.9,1.2,1.8,3.2,2.9
		c3.9,2,11.6,3.9,11.7,3.9l0.6,0.1l-0.2,0.5c0,0.1-0.5,1.9-1.4,4.1c-0.5,1.1-1.1,2.4-2.1,2.8c-0.2,0.1-0.8,0.3-1.6,0.5
		c-3.2,1-9.9,3.1-15.8,6.1c-10.3,5.3-13.5,8.3-18.4,12.8c-1,0.9-2.1,2-3.4,3.1l-0.4,0.3l-0.3-0.4c-11.9-16.4-0.3-53.9,6.8-68.5
		l0.1-0.2l0.2,0c13.4-4.4,22.7-13.1,33.4-23c0.9-0.9,1.9-1.8,2.9-2.8c5.6-5.2,10.2-11,14.5-18.2c5-8.4,8-17.4,8.6-25.5
		c0.4-5.2-2.1-10.8-5.9-13.5c-2.8-1.9-6.6-2.9-11.3-2.9c-6.7,0-13.3,1.9-15.8,2.8c-1.6,0.6-2.4,0.8-4,1.5l-0.5,0.2l-0.2-0.4
		c0-0.1-5.8-11.4-8-15.8c-0.5-1.1-0.9-2.3-1.5-3.7c-1.2-3.2-2.5-6.8-4.7-7.9c-1-0.5-2.4-0.8-4.2-0.8c-4,0-9,1.3-11.7,2
		c-5.9,1.5-12.4,4.7-19.1,8.1c-4.3,2.2-9.5,6.2-15.6,12.3c-9.3,9.2-14.4,18.1-15.7,27.2c-0.4,2.9-1.2,9,0.4,11.4
		c0.2,0.2,0.8,0.5,1.4,0.7c0.5,0.2,1.2,0.5,1.7,0.8c3.4,2.1,7,4.5,10.5,7.2l0.2,0.1l0,0.2c1.2,5.7,0.3,11.2-0.8,17.5
		c-0.3,1.6-0.6,3.3-0.8,5.1c-0.6,4-1.8,8.2-3.5,12.9c-3.4,9.3-6.6,16.1-10.2,22c-0.7,1.2-1.5,2.2-2.3,3.3c-1.1,1.4-2.1,2.7-2.9,4.3
		c-2.3,4.6-5.1,11-6,19.6c-0.2,1.7,0,3.4,0.1,5.1c0.2,1.8,0.3,3.7,0.2,5.8c-0.2,2.2-1,4.4-1.8,6.8c-0.5,1.4-1.1,2.9-1.5,4.3
		c-2.8,10.3-6.1,25.1-2.4,35.4c0.7,2.1,1.6,3.5,3.7,4.3l0.3,0.1v0.3c0,2-0.5,5.1-1.1,8.7c-1.2,7-2.8,16.6,0.4,17.8
		c0.4,0.2,0.8,0.3,1.2,0.3c1.1,0,2.1-0.7,3.1-1.4c0.9-0.7,1.9-1.5,3.1-1.5c0.2,0,0.4,0,0.6,0.1l0.4,0l0,0.4c1,8.2,4.1,16.6,9.6,26.4
		c0.1,0.2,0.2,0.3,0.3,0.5l0.6,1.2c2.5,4.6,4.8,8.6,9,11.7l0.2,0.1l0,0.2c1.1,3.4,0,6.1-0.9,8.8c-1.1,3-2.2-8.3-0.5-4.4
		c0.3,0.8,2.5,4.7,14.6,7.7c0.2,0,0.9,0.4,3.1,1.8C238.4,439.9,240.5,455.3,241.2,455.6"/>
	<path class="st1" d="M270,176.7c-5.8-7.7-10.4-16.3-16.6-23.7c-2.3,1.3-5,2.1-6.6,4.4c5.5,7.8,11.6,15.2,16.7,23.4
		c-7.5,7.7-15.2,11.8-21.6,24.4c0.8,1.7,0.3,4.3,1.1,5.9c11.4-16,26.9-32,45.4-39.7c-0.3-1-0.7-1.8-0.7-1.8s-0.8-1.4-0.8-1.5
		C276.8,171.2,275.1,173.9,270,176.7"/>
	<path class="st1" d="M208,277.5c-3.3,6-6.7,16.1-5.5,24.6c13.2-9.4,23.7-22,27.3-43c0-0.3-0.2-0.3-0.5-0.3
		C223.6,266.6,214.3,270.2,208,277.5"/>
	<path class="st1" d="M274.7,226.3c1.2,1.9,1.7,5.2,1.2,7.7c2-1.2,3.9-2.5,6.2-3.3c9.6-9.5,22.9-17.9,27.7-33
		c1.5-4.6,0.9-10.3-3.7-10.1c-5.5,0.2-10.4,1.9-14.6,3.9c-3.5,1.7-7.6,4.5-11.3,7.3c-9.9,7.5-22.5,19.3-25.2,32.7
		C260.1,228.1,265.9,223.2,274.7,226.3"/>
	<path class="st2" d="M351.6,254.3c0.9,1.5,2.2,1.3,2.1-0.9c0-3-8.8-12.3-13.1-13.5c-1.6-0.5-2.1,1.3-1,2.5
		C344.8,245.3,349.7,251.1,351.6,254.3"/>
	<line class="st4" x1="383.7" y1="269.6" x2="383.8" y2="269.2"/>
	<path class="st2" d="M333,220.1v2.9c0.5,0,1.3,0,1.5,0.4c0.9,1.5-0.5,6.5-3.1,11.6c-2.1-0.5-4.1-0.8-6.2-0.8
		c-1.3,0-2.5,0.1-3.6,0.3c2-5,6.9-11.2,11.1-11.5c0.1,0,0.3,0,0.4,0V220.1 M333,220.1c-0.2,0-0.4,0-0.6,0
		c-7.2,0.4-14.8,12.1-14.8,18.4c0,0,3-1.3,7.4-1.3c2.2,0,4.9,0.3,7.7,1.3C335.4,233.8,342.1,220.1,333,220.1"/>
	<path class="st2" d="M354.2,226.3c-3.8,0-6.1,2.2-8.6,5.6c-1,1.4-0.5,2.7,0.6,2.7c0.6,0,1.3-0.3,2-1.2c2.5-2.8,4.6-4,6-4
		c0.5,0,0.9,0.1,1.2,0.4c2.8,3.1-2.1,14-6,18.9c-0.7,0.9,1.3,3.1,2.9,3.3c3.2-5.3,12.7-25,2.6-25.6
		C354.6,226.3,354.4,226.3,354.2,226.3"/>
	<path class="st2" d="M352.4,248.7c0,0,3.9-5.2,4.4-9.2c-1.1-1.5-2.5-3.8-4.4-3.7c-3.1,0.2-5.9,4.4-5.7,7.8c0.1,1.7,0.8,3.1,1.8,4.2
		L352.4,248.7z"/>
	<path class="st2" d="M332.5,237.2l3.4-9.2c-1-0.9-1.9-1.1-3.4-1c-3.1,0.2-5.5,3-5.3,6.4c0,0.8,0.2,1.5,0.5,2.2L332.5,237.2z"/>
	<path class="st2" d="M346.8,289.7c-3.1-2.7-5.6-6.7-6.5-12c-1.4-9.2,1.6-17.1,7.9-17.7c2.1-0.2,3.3,0,4.3,0c2.2,0,1.3-1.7,0.4-2
		c-1-0.4-3.7-0.8-5.8-0.5c-6.8,0.9-12.2,9.8-10.7,19.8c1,6.3,3.8,12.1,7.6,14.9L346.8,289.7z"/>
</g>
<g>
	<path class="st2" d="M240,361.6c3.6-7.7,5.6-10.6,7.3-13.5c2.2-3.2,7.5-11.3,11-15.3c3.4-4,8.1-9.1,13.3-12.9
		c4-2.9,8.2-6.1,12.1-8.2c3.9-2,7.9-3.8,12.1-5.7c-2.4,3.8-5.3,6-5.5,8.3c-0.1,1.2,0.6,2.1,2,1.5c2.3-0.9,11.9-18.7,13.1-24.3
		c8.9,0.5,17.6-0.3,25.3-2.6l-3.3-2.9c-14.6,3.3-20.4,3.7-33.1,0.9c35-4.9,44.9-20.3,44.9-20.3s-11.8-0.9-33.8-6.4
		c-5.9-1.5-20.9-4.2-20.9-4.2s8.6-14.8,28.9-15.4c4.2-0.1,9.5,0.4,13.4,1.8c11.1,3.8,16.8,9.9,19.4,16.2l3.2-0.6
		c-3.9-9-13.1-14.8-16.7-16.6c-0.8-0.4-3.9-1.9-5.8-2.6c-1.8-0.6-7.1-1.5-7.1-1.5s6.3-18.2,24.4-23.2c17.1-4.7,33.1,1.5,37.7,18.1
		c1.1,4.2,1.2,9.5,0.5,13.8c-0.4,2.1-0.8,4-1.4,6.1c-0.6,2.1-0.3,1.2-1.6,5.3c-0.5,1.6-19.3,40.3-5.5,81.1
		c2.2,6.5,9.1,12.8,11.5,14.7c12.2,9.5,32.6,15.5,50.8,19.2c-20.3-4.1-2.3-1.9,9,0.3l8.3-14.3c0,0,15.6,3.8,1.7,1.7
		c-15.4-2.3-32.5-5-35.4-5.8c-5.6-1.5-24.9-3.1-37.1-20.5c0,0-2.4-4.8-3.3-8.6c-7.3-32.1,1.8-51,7.1-64.7
		c13.7-5.2,21.8-24.4,12.3-29.5c2.1-2.8,13.6-17.1,3.2-24.2c5.4-5.8,6.4-15.7,2.4-22.5c-3.5-5.6-12.4-6.8-17.4-2.5
		c7-26.1-9.4-26.3-18.2-22.8c-15.3,6-29.7,32.5-26.6,52.2c-0.2,0.1-5.8,1.8-8.2,3.4c-3.5,2.3-6.9,4.8-9.8,8
		c-3.7,4.1-8.6,14.4-8.6,14.4c-1.5,0-1.6,0-2.5,0c-17.1,0-28,12.3-30.1,14.7c-1.5,1.7-4.9,6.5-3.5,6.8c20,3.9,26.6,5.8,26.6,5.8
		s-3.8,5.1-4.6,6.1c-5.3,7.2-15.6,13.7-15.4,14.9c0.2,1.5,2.5,2.7,3.8,3.1c5.9,2.1,11.9,2.8,11.9,2.8s-0.9,3.3-1.7,5.5
		c-0.4,0.9-0.9,2.1-1.8,2.5c-1,0.4-10,2.8-17.5,6.7c-12.5,6.5-14.6,9.5-22,16c-11.2-15.4-0.4-52.6,7.7-69.3
		c15.1-7.9,23.6-12.5,35.7-23.6c7.1-6.5,10.8-11.7,15.1-19c4.3-7.1,7.4-16.6,8-26c0.4-5.8-2.4-11.3-6.2-14
		c-7.3-5.1-20.1-2.7-27.6-0.2c-1.7,0.6-3.3,1.2-4.9,1.8c-18.5,7.8-32.3,23.2-43.7,39.2c-0.8-1.6-0.3-4.3-1.1-6
		c8-13.5,14.5-18.5,21.6-24.4c-5.1-8.2-11.1-15.6-16.7-23.4c1.5-2.2,4.3-3.1,6.6-4.4c6.3,7.3,10.9,16,16.6,23.7
		c4.2-3.1,9.8-6.2,15.6-8.2c0-0.2-3.9-8.2-6-12.6c-1.8-3.7-3.1-10.1-6.4-11.8c-3.9-1.9-11.7,0-16.3,1.2c-6.2,1.6-13,5-19.2,8.2
		c-5.4,2.8-11.2,8-15.7,12.4c-6.2,6.1-14.1,15.5-15.7,27.5c-0.6,4.2-1.2,9.4,0.5,11.7c0.4,0.6,2,1,3.2,1.7c3.6,2.3,7.1,4.5,10.5,7.1
		c1.5,7.1-0.3,13.8-1.6,22.4c-0.7,4.6-2.1,9-3.5,12.8c-2.9,7.9-6.1,15.3-10.2,21.8c-1.7,2.8-3.8,4.8-5.2,7.6
		c-2.8,5.4-5.2,11.7-6.1,19.7c-0.4,3.5,0.6,6.9,0.3,10.9c-0.3,3.4-2.3,7.2-3.3,11.1c-2.9,10.8-6.7,28-2.9,38.5
		c0.7,1.9-0.6,3.4,1.8,4.3c0.1,6.1,8.3,7.4,11.5,2.8 M197.1,380.6c-2.2-3.4-1.2-12.5-3.7-22.2c-2.5-9.8,1.8-22.2,4.3-32.2
		c1.9-7.7,3.5-14.4,7.4-19.4c1.9-2.4,5.6-4,7.5-5.7c4.2-3.8,10.9-9.8,13.5-15.4c0.6-1.4,0.9-3.4,1.6-5.1c1.5-3.5,4.6-9.1,5.5-13.7
		c0.8-4.3,1.4-13.2-0.9-14.3c-3.3-1.6-7.1,4.1-8.9,5.5c-3,2.4-5.5,5-7.8,6.2c0.3-2.9,2.5-4.6,3.7-7.2c7.4-15.2,8.2-36.7,9.7-56.2
		c1.4-1.1,3.1-2,6-1.4c4.6,5.2,4.8,11.7,3.4,19c-0.6,3.4-2.4,6.5-2.9,9.8c-0.7,4.7-0.1,9.7,1.5,13.5c0.9,2.1,3.8,4.4,4.1,6.2
		c1,5.4-4.3,10.4-1.3,13.8c1.7-0.2,1.8-2.5,2.3-3.7c4.5-11.7,10.7-22.4,20.8-27.5c2.4-1.2,6-3.3,8.8-1.1c-0.4,6.9-6.4,9.4-8.9,14.2
		c-2,3.8-3.4,7.9-5,12c-0.4,1-0.8,2-1.2,3.1c-0.8,2-1.6,4-2.4,6c-1.2,3-2.3,6.1-3.3,9.3c-4.5,15-9.5,33.6-3.4,46.8
		c0.6,1.2,1.2,2.9,1.8,4.6c0.5,1.4,1.8,3.7,1.8,4.6c-0.1,1.2-2.5,3.9-3.3,5c-5.8,8.1-11.1,15.7-15.8,25.2 M229.4,258.7
		c0.3,0,0.5,0.1,0.5,0.3c-3.6,21-14.1,33.6-27.3,43c-1.2-8.4,2.1-18.6,5.5-24.6C214.3,270.2,223.6,266.6,229.4,258.7 M254.9,231.3
		c2.6-13.4,15.3-25.2,25.2-32.7c3.7-2.8,7.8-5.6,11.3-7.3c4.1-2,9.1-3.8,14.6-3.9c5.1,0,5.1,5.5,3.7,10.1
		c-4.2,14.4-16.1,24.6-28.2,32.6c-3.5,2.2-3.7,2.5-5.7,3.7c0.5-2.5,1.8-5.5-1.2-7.7C267.1,222.5,260.1,228.1,254.9,231.3
		 M310.7,265.5l4.7,1c0,0,0.9,5.3-4.4,12.5c-3.3,1.2-10.5,3.1-14.7,3.6c3.1-2.5,5.7-5.5,8.1-8.6c1.2-1.5,2.3-3.1,3.4-4.6
		C308.3,268.8,310.7,265.5,310.7,265.5"/>
	<path class="st2" d="M622.7,358.8c0.6-2.8,3.1-6,7.4-6c4,0,5.5,2.9,4.8,6c-0.7,3.3-3.7,6-7.4,6C623.2,364.9,622,361.7,622.7,358.8
		 M624.2,358.8c-0.6,2.7,0.8,4.5,3.6,4.5c2.7,0,5-1.8,5.6-4.6c0.6-2.7-0.9-4.4-3.7-4.4C627,354.3,624.7,356.2,624.2,358.8
		 M626.7,362.1h-1.5l1.4-6.5h3.7c1.3,0,2.1,0.5,1.8,2c-0.3,1.2-1,1.6-2.2,1.7l1,2.8h-1.6l-0.9-2.6h-1.1L626.7,362.1z M629.4,358.4
		c0.7,0,1.1-0.1,1.3-0.9c0.2-0.7-0.6-0.7-1.2-0.7h-1.6l-0.4,1.7H629.4z"/>
</g>
<g>
	<path class="st1" d="M49.1,453.4H6.7l25.8-104.1h37.3c15.3,0,25.2,3.2,30.4,9.8c4,5,4.9,11.8,2.9,20.1c-2.1,8.4-6.8,15.1-13.8,19.7
		c7.4,6.3,7.4,13.3,4.9,23.5C89.2,442.7,73.6,453.4,49.1,453.4 M17.6,444.9h31.5c20.7,0,32.8-8,36.9-24.4
		c2.6-10.6,1.5-13.4-6.8-18.1l-3.7-2.1l3.1-5.2l1.3-0.6c8-3.4,13.1-9.1,15.1-17.2c1.4-5.7,1-10-1.3-12.9c-3.4-4.4-11.4-6.6-23.8-6.6
		H39.1L17.6,444.9z M37.2,436.3l8-32.3l4.9,0.2c7.4,0.2,13.7,0.4,17.1,4.9c2.1,2.8,2.5,6.5,1.2,11.5c-3.7,15.2-11.9,15.4-23.3,15.5
		L37.2,436.3z M51.8,412.7l-3.7,14.9c8.5-0.2,10.1-1,12-9c0.9-3.4,0.3-4.3,0.3-4.4C59.6,413.2,55.5,412.9,51.8,412.7 M47.3,395.7
		l7.2-29.2h5.3c5.6,0,11.9,0,15.3,4.2c1.9,2.5,2.4,5.8,1.4,10.1c-3.4,13.6-11.2,14-21.1,14.4c-0.8,0-1.6,0.1-2.4,0.1L47.3,395.7z
		 M61.2,375l-2.9,11.6c6.9-0.4,8.4-1.3,10.1-7.8c0.4-1.9,0.2-2.7,0.1-2.8C67.8,375.2,63.8,375,61.2,375"/>
	<path class="st2" d="M12.1,449.2l23.7-95.6h34c19.8,0,34,5.5,29.2,24.8c-2.1,8.4-7.5,15.9-17.6,20.1l-0.1,0.3
		c10.4,5.8,11.7,11,8.8,22.8c-4.8,19.4-19.7,27.7-41,27.7H12.1z M42.6,432c13.1-0.3,18.5,0.5,21.6-12.4c2.8-11.1-4.8-10.8-15.8-11.2
		L42.6,432z M52.8,391.2c11.6-0.6,16.8,0,19.7-11.4c2.2-9.4-5.3-9-14.6-9L52.8,391.2z"/>
	<path class="st1" d="M165.4,453.4h-34.9l-0.6-3.5c-0.3-1.8-0.6-4.1-0.2-6.8l0-0.2c0.7-3.8,1.6-7.4,2.5-10.9c1-4,1.9-7.9,2.3-10.9
		c0.5-3.9-0.3-4.8-0.3-4.9c-0.2-0.3-0.9-0.4-1.7-0.4h-5.1l-9.2,37.6H83.8L109,349.7h40.8c13.4,0,21.8,2.8,26.6,8.9
		c4.2,5.4,5,12.8,2.6,22.7c-1.8,7.3-4.9,15.1-13.5,20.8c3.6,3.1,5.2,7.7,4.4,13.1c-0.4,2.7-1.1,6.4-1.9,10.2
		c-1.3,6.7-2.9,14.9-3,18.7c0.2,0.5,0.3,0.7,0.4,0.8l1.6,1.7L165.4,453.4z M138,445h18.4v-0.3c0-4.5,1.6-12.8,3.2-20.9
		c0.7-3.8,1.4-7.4,1.8-9.9c0.3-1.5,0.9-6-6.3-7.5l-3.4-0.7V399l2.8-1c10.6-3.9,14-10,16.1-18.7c1.8-7.2,1.5-12.3-1-15.4
		c-2.9-3.7-9.6-5.7-19.9-5.7h-34.1L94.6,445h16.9l9.2-37.6h11.8c3.4,0,6.2,1.1,8.1,3.2c2.2,2.6,3.1,6.4,2.4,11.6
		c-0.4,3.5-1.4,7.6-2.5,11.9c-0.8,3.4-1.7,6.8-2.4,10.5C138,444.6,138,444.8,138,445 M137,398.7h-14.1l7.7-31.8l3.3-0.1
		c1.3,0,2.5,0,3.6,0c5.6,0,11.3,0.3,14.4,4.3c2.9,3.7,2.2,8.6,1.2,12.6C150.8,393.3,145.1,398.7,137,398.7 M133.6,390.2h3.4
		c1.6,0,5.9,0,7.8-8.5c1.1-4.4,0.4-5.4,0.4-5.4c-0.3-0.3-1.6-1.1-7.9-1.1L133.6,390.2z"/>
	<path class="st2" d="M114.8,449.2H89.1l23.2-95.3h37.4c21,0,29.8,7.4,25.1,26.3c-2.5,10.1-7,17.4-18.8,21.7v0.3
		c6.7,1.4,10.7,5.7,9.6,12.3c-1.2,7.6-4.9,24-4.9,30.1c0.3,1.3,0.7,2.4,1.6,3.3l-0.3,1.2h-28c-0.3-1.8-0.5-3.5-0.2-5.5
		c1.6-8.4,4.1-16.3,4.8-22.1c0.7-5.8-0.4-10-6.3-10H124L114.8,449.2z M128.2,394.4h8.7c7.4,0,10.7-6,12-11.8
		c2.8-11.3-2.5-11.8-15-11.6L128.2,394.4z"/>
	<path class="st1" d="M199.1,456.3c-14.5,0-24.2-3.3-29.4-10c-4.9-6.3-5.8-15.4-2.6-28l9.8-38.8c5-20.1,22.2-31.7,47.3-31.7
		c14,0,23.9,3.5,29.3,10.5c4.6,5.8,5.7,13.7,3.4,23.2l-9.8,38.8C240.9,445.2,226.1,456.3,199.1,456.3 M224.3,356.4
		c-21.2,0-35.1,9-39.1,25.2l-9.8,38.8c-2.5,9.8-2.2,16.6,1,20.7c3.5,4.4,11.1,6.7,22.7,6.7c23.3,0,34.5-8.3,39.8-29.4l9.8-38.8
		c1.7-6.8,1.1-12.2-1.8-16C243.2,358.9,235.4,356.4,224.3,356.4 M203.5,439.2c-5,0-7.7-2.2-9.1-4c-2.5-3.4-2.9-8.4-1.1-15l9.8-39
		c1-4,4.1-16,16.9-16c4.2,0,7.3,1.3,9.2,3.8c3.4,4.4,1.8,10.8,0.9,14.3l-9.8,39.1C218.8,427.4,215.7,439.2,203.5,439.2 M219.9,373.6
		c-3.7,0-6.6,1.6-8.7,9.6l-9.8,39.1c-1.2,4.4-0.9,6.9-0.3,7.7c0.4,0.6,1.7,0.7,2.4,0.7c4.8,0,6.8-3.9,8.6-10.5l9.8-39
		c1.3-5.1,1-6.6,0.6-7C222.3,373.9,221.6,373.6,219.9,373.6"/>
	<path class="st2" d="M243.1,419.4c-5.4,21.5-17.2,32.6-43.9,32.6c-26.8,0-33.3-11.2-27.9-32.6l9.8-38.7c4.5-18.3,20-28.5,43.2-28.5
		c23.2,0,33.1,10.1,28.6,28.5L243.1,419.4z M225.9,382.2c1.5-5.8,2.7-12.8-6-12.8c-8.4,0-11.3,7-12.8,12.8l-9.8,39.1
		c-1.5,5.5-2.4,13.6,6.1,13.6c8.6,0,11.1-8.1,12.6-13.6L225.9,382.2z"/>
	<path class="st2" d="M235.9,449.7l46.1-95.3h30.3l0.6,95.3h-25.4l0.9-18.5h-19.7l-7.4,18.5H235.9z M293.1,371.7h-0.3l-17.5,42.7
		h14.6L293.1,371.7z"/>
	<path class="st1" d="M346.3,455.7c-17.3,0-25.4-5.7-29.1-10.4c-4-5-5.1-11.7-3.4-18.8l3.4-13.4H348c-6.3-3.7-12.6-7.5-16.7-12.8
		c-4.7-6.3-5.8-13.7-3.6-22.7c4.8-19.3,20.9-30.3,44-30.3c16,0,23.7,5.9,27.4,10.9c4.8,6.5,5.6,15.4,2.5,25.5l-0.9,3h-30.4
		c1,0.6,1.9,1.1,2.9,1.6c5.2,2.9,9.7,5.4,13.2,8.9c6.6,6.4,8.2,14.7,5.2,26.8C386.5,444.2,369.9,455.7,346.3,455.7 M323.9,421.6
		l-1.8,6.9c-0.8,3.2-1.1,7.8,1.8,11.6c3.7,4.7,11.4,7.2,22.4,7.2c20,0,32.8-8.7,37-25.2c2.8-11.2,0.3-15.6-2.9-18.7
		c-2.8-2.7-6.8-4.9-11.4-7.6c-2.8-1.5-6-3.3-9.2-5.4c-2.9-1.9-10.5-6.8-6.6-16.8c2.3-5.7,7.4-9.1,13.7-9.1c0.4,0,0.9,0,1.3,0
		c3.7,0.2,6.4,1.5,8.2,3.8c2.2,2.9,2.3,6.5,1.8,9.9h16c1.1-4.8,1.2-10.5-2-15c-3.6-4.9-10.7-7.4-20.6-7.4c-19.2,0-32,8.5-35.8,23.9
		c-2.1,8.4,0,12.7,2.1,15.5c3.1,4,8.4,7.2,15.5,11.3l1.1,0.6c5.8,3.2,14.6,8,12,18.7c-1.5,6.4-6.9,12.7-15.4,12.7
		c-4.9,0-8.4-1.4-10.6-4.1c-2.2-2.8-2.7-6.6-1.5-11.4l0.4-1.5H323.9z M350.1,414.3l-2.6,10.8c-0.6,2.4-0.4,3.7-0.1,4.1
		c0.3,0.5,1.5,0.9,3.9,0.9c4.1,0,6.4-3.4,7.1-6.3c0.9-3.8-0.9-5.5-7.8-9.2L350.1,414.3z M366.9,373c-2.9,0-4.9,1.2-5.8,3.7
		c-1,2.6-1,3.8,3.3,6.6c1.3,0.9,2.6,1.6,3.9,2.4l0.7-4c0.1-0.4,0.2-0.9,0.3-1.4c0.4-2.1,1.2-5.8,0.4-6.8c-0.1-0.1-0.7-0.4-2-0.5
		C367.4,373,367.2,373,366.9,373"/>
	<path class="st1" d="M431,453.4h-33.8l18.3-76.2h-19.7l6.4-27.5H476l-6.4,27.5h-20.3L431,453.4z M407.9,445h16.4l18.3-76.2h20.3
		l2.5-10.6h-56.4l-2.5,10.6h19.7L407.9,445z"/>
	<polygon class="st2" points="405.5,353.9 470.6,353.9 466.1,373 445.9,373 427.6,449.2 402.5,449.2 420.7,373 401,373 	"/>
	<path class="st1" d="M524.4,453.9l-75.5-0.2l24.7-103.9l80.4,0.3l-6.9,27.6l-42.6-0.2l-2.4,9.1h36.5l-7.2,27.5H495l-3.1,12.1
		l39.6,0.1L524.4,453.9z M459.6,445.3l58.2,0.1l2.7-10.6l-39.6-0.1l7.4-29h36.5l2.8-10.6h-36.5l6.9-26l42.5,0.1l2.7-10.6l-62.8-0.2
		L459.6,445.3z"/>
	<path class="st2" d="M345,417.3l-1.7,6.8c-1.3,5.5-0.4,10.3,8,10.3c6.1,0,10.1-4.7,11.3-9.5c1.9-8-4.9-11.2-11.1-14.6
		c-7.1-4.1-13.1-7.7-16.8-12.5c-3.6-4.8-4.9-10.7-2.8-19.1c4.5-17.9,19.5-27.1,39.9-27.1c23,0,31.5,13,25.8,30.9h-24.3
		c1-5.6,3.3-13.2-5.2-13.7c-5.4-0.4-9.2,2.2-10.8,6.4c-2.2,5.7,0.5,8.8,5,11.7c8.5,5.5,16.3,8.6,21.3,13.5c4.9,4.8,6.9,11.2,4,22.7
		c-4.6,18.3-19.2,28.5-41.1,28.5c-24.1,0-31.5-11.4-28.3-24l2.5-10.1H345z"/>
	<path class="st1" d="M606.7,454H570l-0.6-3.5c-0.3-1.8-0.6-4.2-0.2-6.9l0-0.2c0.8-3.8,1.7-7.4,2.6-11c1.1-4,2.1-7.9,2.5-10.8
		c0.5-3.6-0.2-4.6-0.3-4.8c-0.3-0.3-1.1-0.5-2.1-0.5h-5.7l-9.8,37.6h-36.1l26.9-103.8h43.2c14.5,0,23.6,3,28.5,9.3
		c4.1,5.4,4.9,12.6,2.4,22.3c-2.5,9.7-7,16.3-14.3,20.7c3.8,3.2,5.5,7.8,4.6,13.2c-0.4,2.7-1.2,6.4-2,10.2
		c-1.4,6.6-3.1,14.8-3.2,18.7c0.1,0.4,0.3,0.6,0.4,0.8l1.8,1.7L606.7,454z M577.5,445.4h20.3v-0.3c0-4.5,1.7-12.9,3.4-20.9
		c0.8-3.8,1.5-7.4,1.9-9.9c0.6-3.9-1.7-6.5-6.9-7.4l-3.4-0.7v-6.8l2.9-0.9c11.4-3.9,15.1-10.1,17.3-18.8c1.8-7,1.5-11.9-0.9-15
		c-3.1-4-10.4-6-21.8-6h-36.6l-22.5,86.8h18.6l9.8-37.6h12.3c3.7,0,6.6,1.1,8.6,3.4c2.2,2.6,3,6.3,2.3,11.4
		c-0.4,3.5-1.5,7.6-2.6,11.9c-0.9,3.4-1.8,6.8-2.5,10.4C577.6,445.1,577.6,445.3,577.5,445.4 M576.7,399.2h-14.8l8.3-31.8l3.2-0.1
		c1.3,0,2.6,0,3.8,0c6.2,0,12.1,0.3,15.3,4.5c2.9,3.7,2,8.9,1.1,12.5C591.2,393.8,585.2,399.2,576.7,399.2 M572.8,390.7h3.8
		c1.8,0,6.6,0,8.6-8.6c1.1-4.3,0.4-5.2,0.4-5.2c-0.3-0.4-1.9-1.2-8.6-1.2h-0.5L572.8,390.7z"/>
	<path class="st2" d="M553.1,449.7h-27.4l24.7-95.3h39.9c22.4,0,31.7,7.4,26.7,26.3c-2.6,10.1-7.4,17.4-20,21.7v0.3
		c7.1,1.4,11.4,5.7,10.3,12.3c-1.2,7.6-5.3,24-5.3,30.1c0.3,1.3,0.8,2.4,1.7,3.3l-0.3,1.2h-29.8c-0.3-1.8-0.5-3.5-0.2-5.5
		c1.7-8.4,4.3-16.3,5.1-22.1c0.8-5.8-0.5-10-6.7-10h-9L553.1,449.7z M567.4,395h9.3c7.9,0,11.4-6,12.7-11.8c3-11.3-2.6-11.8-16-11.6
		L567.4,395z"/>
	<polygon class="st2" points="454,449.9 476.9,353.9 544.1,354.2 539.3,373.3 501.2,373.2 496.6,390.8 531.5,390.8 526.5,410 
		491.6,410 486.3,430.7 526.2,430.8 521.2,450 	"/>
</g>
</svg>
